<svg xmlns="http://www.w3.org/2000/svg" xml:space="preserve" width="845.12" height="140.13" viewBox="0 0 845.12 140.13">
  <path d="M0 2.3h54L70.8 72l4.1 19.3 4-19.3L95.8 2.3h54v135.4h-34.6V49.9L110.3 70l-18 67.7H56.7L38.7 70l-4.8-20.1v87.8H0zm291 79.9c0 36.2-23.8 57.8-63.6 57.8s-63.6-21.5-63.6-57.8V57.8c0-36.2 23.8-57.8 63.6-57.8S291 21.5 291 57.8zM227.3 30c-16.4 0-26.5 9.3-26.5 24.6v31c0 15.1 10.1 24.6 26.5 24.6s26.5-9.5 26.5-24.6v-31c0-15.3-10-24.6-26.5-24.6m203.9 52.2c0 36.2-23.8 57.8-63.6 57.8S304 118.5 304 82.2V57.8C304 21.6 327.8 0 367.6 0s63.6 21.5 63.6 57.8zM367.6 30c-16.4 0-26.5 9.3-26.5 24.6v31c0 15.1 10.1 24.6 26.5 24.6s26.5-9.5 26.5-24.6v-31c0-15.3-10.1-24.6-26.5-24.6m197.5 48.3c0 37.5-24 59.4-65.6 59.4H445V2.3h54.5c41.6 0 65.6 21.9 65.6 59.4zm-65.6-45.6h-17.8v74.7h17.8c19 0 28.4-9.7 28.4-28.4V61.1c0-18.9-9.5-28.4-28.4-28.4m103.7 45.5L553.8 2.3h41.6l26.1 42.6 25.9-42.6h39.8L638 78.2v59.6h-34.8zM691 2.3h36.8v33.8l-23.6 31.7h-7.9L706.8 39H691zm154.1 93.3c0 28.1-20.7 44.5-56.1 44.5s-55.9-16.1-55.9-42.9v-6h35.8v5.2c0 9.5 6 13.5 20.1 13.5 13 0 19.7-3.9 19.7-11.2 0-8.3-5.6-10.1-13.9-11.2l-24.4-3.7c-15.9-2.3-36.6-10.4-36.6-39.7S754.2 0 789.1 0s54.5 15.9 54.5 42.6v5.2h-35.8v-4.4c0-9.3-5.6-13.2-18.8-13.2-12.4 0-18.8 3.7-18.8 10.8 0 7.9 5.4 9.7 13.2 10.8l24.2 3.7c16.9 2.5 37.6 10.7 37.5 40.1" fill="#0a1263"/>
</svg>
